<svg width="585" height="525" viewBox="0 0 585 525" fill="none" xmlns="http://www.w3.org/2000/svg">
<path d="M504.002 310.58C515.02 274.922 514.571 236.919 502.718 201.98L354.854 254.649C356.229 258.702 356.281 263.111 355.003 267.248L504.002 310.58Z" fill="#C8BFBF"/>
<path d="M218.981 347.002V183.486H272.438C290.182 183.486 303.509 187.155 312.418 194.492C321.403 201.829 325.895 212.685 325.895 227.06C325.895 234.697 323.724 241.473 319.381 247.387C315.039 253.227 309.124 257.757 301.637 260.976C310.472 263.447 317.434 268.164 322.526 275.127C327.692 282.015 330.275 290.25 330.275 299.834C330.275 314.508 325.52 326.038 316.012 334.423C306.503 342.809 293.064 347.002 275.695 347.002H218.981ZM240.543 270.522V329.37H276.144C286.176 329.37 294.075 326.787 299.84 321.621C305.68 316.38 308.6 309.192 308.6 300.058C308.6 280.367 297.893 270.522 276.481 270.522H240.543ZM240.543 253.227H273.112C282.545 253.227 290.07 250.869 295.685 246.152C301.375 241.435 304.22 235.034 304.22 226.948C304.22 217.964 301.6 211.45 296.359 207.407C291.118 203.289 283.144 201.23 272.438 201.23H240.543V253.227Z" fill="white"/>
<path d="M435.183 187.18C420.061 147.9 391.507 115.854 354.385 96.5016C317.264 77.1491 273.872 71.6875 231.602 81.0474C189.333 90.4074 150.802 114.01 122.575 147.833C94.3475 181.656 78.1701 223.607 76.7992 266.539C75.4283 309.47 88.9486 350.725 115.057 383.275C141.164 415.825 178.245 437.655 219.979 445.046C261.713 452.437 305.519 444.932 343.934 423.809C382.348 402.686 412.993 369.252 430.648 329.205L390.54 313.279C377.082 343.808 353.72 369.295 324.436 385.397C295.152 401.5 261.758 407.221 229.943 401.587C198.128 395.953 169.862 379.311 149.959 354.498C130.057 329.685 119.75 298.235 120.795 265.508C121.84 232.78 134.172 200.8 155.69 175.016C177.209 149.232 206.581 131.239 238.804 124.104C271.027 116.969 304.105 121.132 332.404 135.885C360.702 150.638 382.47 175.067 393.998 205.011L435.183 187.18Z" fill="#ADDADD"/>
</svg>
