<svg width="402" height="344" viewBox="0 0 402 344" fill="none" xmlns="http://www.w3.org/2000/svg">
<rect x="224" y="125" width="168" height="21" rx="10.5" fill="#C4C4C4"/>
<rect x="178" y="156" width="168" height="21" rx="10.5" fill="#BBBBBB"/>
<path d="M61.3125 169.531C61.3125 173 62.3438 175.625 64.4062 177.406C66.5625 179.094 70.4531 179.938 76.0781 179.938H84.9375C86.625 179.75 87.8906 179.656 88.7344 179.656C98.6719 179.656 107.484 175.812 115.172 168.125C122.953 160.344 126.844 150.172 126.844 137.609V131.422C126.844 120.078 123.188 111.078 115.875 104.422C108.656 97.6719 98.3438 94.2969 84.9375 94.2969H81.1406C79.4531 94.4844 78.2344 94.5781 77.4844 94.5781C69.7969 94.5781 65.1094 96.5469 63.4219 100.484C62.2031 103.297 61.5938 116.281 61.5938 139.438L61.4531 142.109V147.875L61.3125 151.953V169.531ZM42.8906 271.344H40.0781C34.8281 271.344 30.75 270.125 27.8438 267.688C24.9375 265.25 23.4844 262.438 23.4844 259.25C23.4844 255.969 24.75 250.859 27.2812 243.922C29.8125 236.891 31.0781 229.156 31.0781 220.719L31.3594 214.25C31.4531 212.094 31.5 209.938 31.5 207.781L31.6406 204.547C31.7344 202.391 31.7812 200.234 31.7812 198.078L32.0625 185.281V159.828L32.2031 150.406C32.2031 147.312 32.2031 144.219 32.2031 141.125L31.9219 135.078C31.8281 133.016 31.7812 131 31.7812 129.031C31.7812 127.062 31.4062 121.438 30.6562 112.156C30 102.875 29.25 96.5937 28.4062 93.3125C27.6562 90.0313 27.2812 87.6875 27.2812 86.2812C27.2812 82.4375 30.1875 79.9063 36 78.6875C46.2188 76.5313 62.7188 75.4531 85.5 75.4531H95.625C126 75.4531 145.969 86.4219 155.531 108.359C158.531 115.203 160.031 122.703 160.031 130.859V134.375C160.031 141.594 158.484 149 155.391 156.594C149.484 171.125 139.406 181.531 125.156 187.812C119.906 190.156 111.938 192.594 101.25 195.125C90.5625 197.562 82.6875 200.422 77.625 203.703C67.7812 210.172 62.8594 217.859 62.8594 226.766L66.6562 250.953C66.6562 256.391 64.4062 261.172 59.9062 265.297C55.5 269.328 49.8281 271.344 42.8906 271.344Z" fill="white"/>
<path d="M124.012 228.568C120.646 228.568 118.032 230.251 116.17 233.617C114.308 236.947 113.377 242.05 113.377 248.925C113.377 251.968 113.502 254.135 113.753 255.424C114.004 256.677 114.38 258.253 114.881 260.15C115.418 262.012 115.687 263.642 115.687 265.038C115.687 266.399 114.863 267.652 113.216 268.798C111.569 269.944 109.42 270.517 106.771 270.517L105.857 270.463H104.891C103.172 270.463 101.74 269.979 100.594 269.013C99.4837 268.046 98.9287 266.954 98.9287 265.736V264.877C98.9287 264.626 99.2689 263.445 99.9492 261.332C100.63 259.219 101.023 257.178 101.131 255.209C101.238 253.24 101.292 250.59 101.292 247.26V241.298L101.238 240.331C101.238 239.687 101.238 239.042 101.238 238.397L101.131 235.497C101.095 234.853 101.077 233.599 101.077 231.737C101.077 229.84 100.737 228.049 100.057 226.366C99.4121 224.647 99.0898 223.537 99.0898 223.036C99.0898 220.888 100.97 219.813 104.729 219.813C108.489 219.813 111.211 220.834 112.894 222.875C113.395 223.484 113.914 223.788 114.451 223.788C115.024 223.788 115.955 223.34 117.244 222.445C120.825 220.01 123.833 218.793 126.268 218.793H127.127C129.275 218.793 130.905 219.276 132.015 220.243C133.16 221.21 133.733 222.499 133.733 224.11C133.733 227.297 131.961 228.891 128.416 228.891C127.02 228.676 125.551 228.568 124.012 228.568ZM164.188 264.77H165.262C168.878 264.77 171.85 263.176 174.178 259.989C176.505 256.802 177.669 252.774 177.669 247.904L177.776 246.723L177.83 244.896V242.479C177.83 237.144 176.738 232.758 174.554 229.32C172.405 225.847 169.523 224.11 165.906 224.11H164.832C161.287 224.11 158.297 225.865 155.862 229.374C153.463 232.883 152.264 237.538 152.264 243.339V246.991C152.335 247.851 152.371 248.441 152.371 248.764C152.371 252.846 153.499 256.534 155.755 259.828C158.011 263.122 160.822 264.77 164.188 264.77ZM189.969 243.231V245.004C189.969 248.191 189.45 251.467 188.411 254.833C186.299 261.672 182.145 266.578 175.95 269.55C172.369 271.269 168.825 272.128 165.315 272.128H163.489C160.159 272.128 157.062 271.448 154.197 270.087C148.504 267.366 144.726 262.854 142.864 256.552C141.862 253.222 141.36 249.838 141.36 246.4V243.661C141.36 240.295 141.88 236.929 142.918 233.563C144.959 226.903 149.005 222.141 155.057 219.276C158.172 217.772 161.359 217.021 164.617 217.021H167.303C170.382 217.021 173.426 217.683 176.434 219.008C182.449 221.658 186.495 226.384 188.572 233.188C189.503 236.195 189.969 239.543 189.969 243.231ZM223.968 271.537H222.786C219.349 271.537 216.162 270.893 213.226 269.604C207.461 267.061 203.558 262.818 201.517 256.874C200.371 253.508 199.798 249.927 199.798 246.132V244.896C199.798 240.671 200.424 236.84 201.678 233.402C204.077 226.814 208.463 222.105 214.837 219.276C217.881 217.951 221.622 217.289 226.062 217.289C230.503 217.289 234.137 218.184 236.966 219.975C239.83 221.729 241.263 223.878 241.263 226.42C241.263 229.177 239.866 230.556 237.073 230.556C236.25 230.556 235.05 230.09 233.475 229.159C231.899 228.228 231.004 227.709 230.789 227.602C228.283 226.42 225.758 225.829 223.216 225.829C219.743 225.829 216.878 227.458 214.622 230.717C212.366 233.939 211.238 238.559 211.238 244.574C211.238 250.554 212.563 255.084 215.213 258.163C217.898 261.243 221.372 262.782 225.633 262.782C227.924 262.782 230.825 262.281 234.334 261.278C237.879 260.24 239.902 259.721 240.403 259.721C241.836 259.721 242.552 260.508 242.552 262.084C242.552 264.197 240.511 266.309 236.429 268.422C232.382 270.499 228.229 271.537 223.968 271.537ZM279.021 239.364C281.456 239.364 283.175 238.988 284.178 238.236C285.18 237.484 285.682 236.625 285.682 235.658V233.402C285.682 230.824 284.733 228.694 282.835 227.011C280.937 225.328 278.86 224.486 276.604 224.486H275.208C271.95 224.486 269.103 225.865 266.668 228.622C264.233 231.343 263.016 234.333 263.016 237.592V238.505C263.016 239.758 264.161 240.385 266.453 240.385H267.688L268.011 240.331L272.039 240.062L274.725 239.848L276.551 239.633C276.873 239.597 277.303 239.543 277.84 239.472C278.413 239.4 278.807 239.364 279.021 239.364ZM276.819 271.698H274.456C267.295 271.698 261.548 269.281 257.215 264.447C255.281 262.299 253.777 259.577 252.703 256.283C251.629 252.953 251.092 249.659 251.092 246.4V243.983C251.092 240.725 251.772 237.305 253.133 233.725C255.747 226.742 260.187 221.998 266.453 219.491C269.676 218.166 273.095 217.504 276.712 217.504H277.894C282.907 217.504 287.042 219.026 290.301 222.069C292.163 223.824 293.559 225.937 294.49 228.407C295.457 230.842 295.94 233.044 295.94 235.014C295.94 239.346 294.58 242.175 291.858 243.5C289.996 244.395 285.735 245.237 279.075 246.024C272.451 246.812 268.816 247.296 268.172 247.475C265.057 248.262 263.499 249.659 263.499 251.664C263.499 255.137 265.092 258.038 268.279 260.365C270.607 262.084 273.937 262.943 278.27 262.943C279.917 262.943 282.584 262.424 286.272 261.386C289.961 260.347 291.984 259.828 292.342 259.828C294.204 259.828 295.135 260.67 295.135 262.353C295.135 264.465 293.13 266.56 289.119 268.637C285.145 270.678 281.045 271.698 276.819 271.698ZM312.698 241.781C309.619 239.06 308.079 235.551 308.079 231.254C308.079 226.921 309.923 223.394 313.611 220.673C317.299 217.916 321.99 216.537 327.684 216.537C333.377 216.537 337.531 217.235 340.145 218.632C342.758 219.993 344.065 221.783 344.065 224.003C344.065 227.047 343.081 228.568 341.111 228.568C340.431 228.568 338.623 227.834 335.687 226.366C332.75 224.898 329.904 224.164 327.146 224.164C324.389 224.164 322.312 224.791 320.916 226.044C319.555 227.297 318.875 228.909 318.875 230.878C318.875 232.847 320.2 234.602 322.85 236.142C323.745 236.679 326.645 237.932 331.551 239.901C336.492 241.835 339.965 243.679 341.971 245.434C345.086 248.191 346.644 251.771 346.644 256.176C346.644 260.58 344.799 264.286 341.111 267.294C337.459 270.266 332.732 271.752 326.932 271.752C317.085 271.752 310.979 269.836 308.616 266.005C307.864 264.787 307.488 263.713 307.488 262.782C307.488 259.667 308.455 258.109 310.389 258.109C310.962 258.109 313.056 259.076 316.673 261.01C320.325 262.908 323.566 263.856 326.395 263.856C329.259 263.856 331.515 263.248 333.162 262.03C334.809 260.813 335.633 259.166 335.633 257.089C335.633 254.976 334.326 253.043 331.712 251.288C330.638 250.572 327.684 249.247 322.85 247.313C318.016 245.344 314.632 243.5 312.698 241.781ZM362.22 241.781C359.14 239.06 357.601 235.551 357.601 231.254C357.601 226.921 359.445 223.394 363.133 220.673C366.821 217.916 371.512 216.537 377.205 216.537C382.898 216.537 387.052 217.235 389.666 218.632C392.28 219.993 393.587 221.783 393.587 224.003C393.587 227.047 392.602 228.568 390.633 228.568C389.952 228.568 388.144 227.834 385.208 226.366C382.272 224.898 379.425 224.164 376.668 224.164C373.911 224.164 371.834 224.791 370.438 226.044C369.077 227.297 368.396 228.909 368.396 230.878C368.396 232.847 369.721 234.602 372.371 236.142C373.266 236.679 376.167 237.932 381.072 239.901C386.014 241.835 389.487 243.679 391.492 245.434C394.607 248.191 396.165 251.771 396.165 256.176C396.165 260.58 394.321 264.286 390.633 267.294C386.98 270.266 382.254 271.752 376.453 271.752C366.606 271.752 360.501 269.836 358.138 266.005C357.386 264.787 357.01 263.713 357.01 262.782C357.01 259.667 357.977 258.109 359.91 258.109C360.483 258.109 362.578 259.076 366.194 261.01C369.847 262.908 373.087 263.856 375.916 263.856C378.781 263.856 381.036 263.248 382.684 262.03C384.331 260.813 385.154 259.166 385.154 257.089C385.154 254.976 383.847 253.043 381.233 251.288C380.159 250.572 377.205 249.247 372.371 247.313C367.537 245.344 364.153 243.5 362.22 241.781Z" fill="white"/>
<rect x="163" y="94" width="168" height="21" rx="10.5" fill="white"/>
</svg>
